# File produced by Open Asset Import Library (http://www.assimp.sf.net)
# (assimp v3.2.202087883)

mtllib model_normalized.mtl

# 96 vertex positions
v 0.057744 -0.072722 0.125269
v 0.112752 0.076078 0.303650
v 0.028829 -0.072722 0.138195
v 0.196107 0.076078 0.266389
v -0.002446 -0.072722 0.143196
v 0.082329 -0.072722 0.105300
v 0.022594 0.076078 0.318067
v 0.266977 0.076078 0.208824
v -0.033950 -0.072722 0.139932
v 0.100907 -0.072722 0.079649
v -0.068223 0.076078 0.308658
v 0.320534 0.076078 0.134879
v -0.063535 -0.072722 0.128626
v 0.112213 -0.072722 0.050063
v -0.153510 0.076078 0.276065
v 0.353127 0.076078 0.049590
v -0.089187 -0.072722 0.110047
v 0.115477 -0.072722 0.018560
v -0.227457 0.076078 0.222508
v 0.362536 0.076078 -0.041227
v -0.109156 -0.072722 0.085463
v 0.110476 -0.072722 -0.012715
v -0.285021 0.076078 0.151637
v 0.348119 0.076078 -0.131385
v -0.122081 -0.072722 0.056548
v 0.310858 0.076078 -0.214739
v -0.322282 0.076078 0.068283
v 0.097550 -0.072722 -0.041630
v -0.336699 0.076078 -0.021875
v 0.253294 0.076078 -0.285609
v -0.127082 -0.072722 0.025273
v 0.077581 -0.072722 -0.066215
v -0.327291 0.076078 -0.112692
v 0.179347 0.076078 -0.339167
v -0.123819 -0.072722 -0.006231
v 0.051931 -0.072722 -0.084793
v -0.294697 0.076078 -0.197980
v 0.094060 0.076078 -0.371760
v -0.112512 -0.072722 -0.035817
v 0.022344 -0.072722 -0.096100
v -0.241140 0.076078 -0.271926
v 0.003243 0.076078 -0.381168
v -0.093934 -0.072722 -0.061468
v -0.009159 -0.072722 -0.099363
v -0.170270 0.076078 -0.329491
v -0.086915 0.076078 -0.366751
v -0.069350 -0.072722 -0.081437
v -0.040434 -0.072722 -0.094362
v -0.142483 -0.016362 0.029757
v -0.111401 -0.016362 0.095878
v -0.131295 -0.016362 0.064863
v -0.144204 -0.016362 -0.007050
v -0.131295 0.013007 0.064863
v -0.142483 0.013007 0.029757
v -0.144204 0.013007 -0.007050
v -0.084158 -0.016362 0.120688
v -0.111401 0.013007 0.095878
v -0.136341 0.013007 -0.043048
v -0.136341 -0.016362 -0.043048
v -0.084158 0.013007 0.120688
v -0.051423 -0.016362 0.137600
v -0.119428 -0.016362 -0.075783
v -0.051423 0.013007 0.137600
v -0.119428 0.013007 -0.075783
v -0.015425 -0.016362 0.145464
v -0.094619 -0.016362 -0.103026
v -0.015425 0.013007 0.145464
v -0.094619 0.013007 -0.103026
v 0.021381 -0.016362 0.143743
v 0.021381 0.013007 0.143743
v -0.063605 -0.016362 -0.122920
v -0.063605 0.013007 -0.122920
v 0.056488 -0.016362 0.132554
v 0.056488 0.013007 0.132554
v -0.028498 -0.016362 -0.134108
v -0.028498 0.013007 -0.134108
v 0.087503 -0.016362 0.112661
v 0.087503 0.013007 0.112661
v 0.008309 -0.016362 -0.135829
v 0.008309 0.013007 -0.135829
v 0.112312 -0.016362 0.085418
v 0.112312 0.013007 0.085418
v 0.044306 -0.016362 -0.127965
v 0.044306 0.013007 -0.127965
v 0.129225 -0.016362 0.052682
v 0.129225 0.013007 0.052682
v 0.077043 0.013007 -0.111053
v 0.077043 -0.016362 -0.111053
v 0.137089 -0.016362 0.016684
v 0.104286 0.013007 -0.086244
v 0.137089 0.013007 0.016684
v 0.104286 -0.016362 -0.086244
v 0.135368 -0.016362 -0.020122
v 0.124180 0.013007 -0.055229
v 0.135368 0.013007 -0.020122
v 0.124180 -0.016362 -0.055229

# 74 UV coordinates
vt 0 0 0
vt 19.5 -0 0
vt 17.3333 1.71875 0
vt 17.3333 -0 0
vt 15.1667 1.71875 0
vt 15.1667 0 0
vt 13 1.71875 0
vt 13 0 0
vt 19.5 1.71875 0
vt 10.8333 1.71875 0
vt 21.6667 0 0
vt -8.23032 0.658671 0
vt -8.28093 1.72645 0
vt -8.32591 1.18923 0
vt -8.09844 2.23372 0
vt 10.8333 0 0
vt -8.00066 0.170933 0
vt -7.79088 2.67648 0
vt 21.6667 1.71875 0
vt 8.66667 0 0
vt -7.6526 -0.240745 0
vt 23.8333 -0 0
vt 8.66667 1.71875 0
vt 23.8333 1.71875 0
vt -7.3792 3.02454 0
vt 6.5 -0 0
vt 26 1.71875 0
vt -7.20984 -0.54831 0
vt 26 0 0
vt 6.5 1.71875 0
vt -6.89146 3.2542 0
vt 28.1667 1.71875 0
vt 4.33333 -0 0
vt -6.70257 -0.730801 0
vt 28.1667 0 0
vt 4.33333 1.71875 0
vt -6.3609 3.34979 0
vt 30.3333 1.71875 0
vt 2.16667 0 0
vt -6.16535 -0.775782 0
vt 30.3333 0 0
vt 2.16667 1.71875 0
vt -5.82368 3.30481 0
vt 32.5 1.71875 0
vt -5.63479 -0.680188 0
vt 32.5 0 0
vt -0 1.71875 0
vt -5.31641 3.12232 0
vt 34.6667 1.71875 0
vt 52 1.71875 0
vt 49.8333 0 0
vt 52 0 0
vt -5.14705 -0.450532 0
vt 34.6667 -0 0
vt 49.8333 1.71875 0
vt -4.87365 2.81476 0
vt 36.8333 1.71875 0
vt 47.6667 1.71875 0
vt -4.73538 -0.102466 0
vt 36.8333 0 0
vt 47.6667 0 0
vt -4.52559 2.40308 0
vt 39 -0 0
vt 45.5 1.71875 0
vt -4.42781 0.34029 0
vt 39 1.71875 0
vt 45.5 0 0
vt -4.29593 1.91534 0
vt 41.1667 0 0
vt 43.3333 1.71875 0
vt -4.24532 0.847563 0
vt 41.1667 1.71875 0
vt 43.3333 -0 0
vt -4.20034 1.38478 0

# 74 vertex normals
vn 0.00810165 -0.020099 0.0132496
vn 0.00455315 -0.0196843 0.0153934
vn -0.00455315 0.0196843 -0.0153934
vn -0.00810165 0.020099 -0.0132496
vn 0.000435555 -0.0193724 0.0164219
vn -0.000435555 0.0193724 -0.0164219
vn 0.0108045 -0.0205602 0.010281
vn -0.0108045 0.0205602 -0.010281
vn -0.00385984 -0.0192127 0.0161597
vn 0.00385984 0.0192127 -0.0161597
vn 0.0125236 -0.0210177 0.00682447
vn -0.0125236 0.0210177 -0.00682447
vn -0.00788752 -0.0192324 0.0145966
vn 0.00788752 0.0192324 -0.0145966
vn 0.0132457 -0.0214352 0.00320057
vn -0.0132457 0.0214352 -0.00320057
vn -0.0112292 -0.0194283 0.0118999
vn 0.0112292 0.0194283 -0.0118999
vn 0.0130458 -0.0217913 -0.000325746
vn -0.0130458 0.0217913 0.000325746
vn -0.0135709 -0.019767 0.00838192
vn 0.0135709 0.019767 -0.00838192
vn 0.0120466 -0.0220767 -0.0035579
vn -0.0120466 0.0220767 0.0035579
vn -0.0147512 -0.0201965 0.00443455
vn 0.0147512 0.0201965 -0.00443455
vn 0.0103864 -0.0222894 -0.00636114
vn -0.0103864 0.0222894 0.00636114
vn -0.0147679 -0.0206607 0.000451548
vn 0.0147679 0.0206607 -0.000451548
vn 0.00819933 -0.0224313 -0.00864678
vn -0.00819933 0.0224313 0.00864678
vn -0.0137468 -0.0211121 -0.0032349
vn 0.0137468 0.0211121 0.0032349
vn 0.00560831 -0.0225049 -0.0103554
vn -0.00560831 0.0225049 0.0103554
vn -0.011889 -0.0215177 -0.00638755
vn 0.011889 0.0215177 0.00638755
vn 0.00272582 -0.0225121 -0.0114428
vn -0.00272582 0.0225121 0.0114428
vn -0.00942012 -0.021859 -0.00886598
vn 0.00942012 0.021859 0.00886598
vn -0.000340025 -0.0224529 -0.0118706
vn 0.000340025 0.0224529 0.0118706
vn -0.00655411 -0.0221287 -0.0106078
vn 0.00655411 0.0221287 0.0106078
vn -0.00347616 -0.0223259 -0.011603
vn 0.00347616 0.0223259 0.011603
vn 0 -0.0254 0
vn 0 0.0254 0
vn 0.0229869 0 -0.0108056
vn 0.019407 0 -0.0163869
vn 0.0250004 0 -0.00448795
vn 0.0253101 0 0.00213556
vn 0.0238949 0 0.00861351
vn 0.0145045 0 -0.0208514
vn 0.0208514 0 0.0145045
vn 0.00861351 0 -0.0238949
vn 0.0163868 0 0.019407
vn 0.00213556 0 -0.0253101
vn -0.00448795 0 -0.0250004
vn 0.0108056 0 0.0229869
vn -0.0108056 0 -0.0229869
vn 0.00448795 -0 0.0250004
vn -0.0163868 0 -0.019407
vn -0.00213556 -0 0.0253101
vn -0.0208514 0 -0.0145045
vn -0.00861351 0 0.0238949
vn -0.0238949 0 -0.00861351
vn -0.0145045 0 0.0208514
vn -0.0253101 0 -0.00213556
vn -0.019407 -0 0.0163869
vn -0.0250004 0 0.00448795
vn -0.0229869 -0 0.0108056

# Mesh 'mesh1_mesh1-geometry' with 96 faces
g mesh1_mesh1-geometry
usemtl material_0_24
f  1//1 2//2 3//2
f  2//2 1//1 4//1
f  3//3 2//3 1//4
f  4//4 1//4 2//3
f  2//2 5//5 3//2
f  3//3 5//6 2//3
f  6//7 4//1 1//1
f  1//4 4//4 6//8
f  5//5 2//2 7//5
f  7//6 2//3 5//6
f  4//1 6//7 8//7
f  8//8 6//8 4//4
f  7//5 9//9 5//5
f  5//6 9//10 7//6
f  10//11 8//7 6//7
f  6//8 8//8 10//12
f  9//9 7//5 11//9
f  11//10 7//6 9//10
f  8//7 10//11 12//11
f  12//12 10//12 8//8
f  11//9 13//13 9//9
f  9//10 13//14 11//10
f  14//15 12//11 10//11
f  10//12 12//12 14//16
f  13//13 11//9 15//13
f  15//14 11//10 13//14
f  12//11 14//15 16//15
f  16//16 14//16 12//12
f  15//13 17//17 13//13
f  13//14 17//18 15//14
f  18//19 16//15 14//15
f  14//16 16//16 18//20
f  17//17 15//13 19//17
f  19//18 15//14 17//18
f  16//15 18//19 20//19
f  20//20 18//20 16//16
f  19//17 21//21 17//17
f  17//18 21//22 19//18
f  22//23 20//19 18//19
f  18//20 20//20 22//24
f  21//21 19//17 23//21
f  23//22 19//18 21//22
f  20//19 22//23 24//23
f  24//24 22//24 20//20
f  23//21 25//25 21//21
f  21//22 25//26 23//22
f  22//23 26//27 24//23
f  24//24 26//28 22//24
f  25//25 23//21 27//25
f  27//26 23//22 25//26
f  26//27 22//23 28//27
f  28//28 22//24 26//28
f  29//29 25//25 27//25
f  27//26 25//26 29//30
f  28//27 30//31 26//27
f  26//28 30//32 28//28
f  25//25 29//29 31//29
f  31//30 29//30 25//26
f  30//31 28//27 32//31
f  32//32 28//28 30//32
f  33//33 31//29 29//29
f  29//30 31//30 33//34
f  32//31 34//35 30//31
f  30//32 34//36 32//32
f  31//29 33//33 35//33
f  35//34 33//34 31//30
f  34//35 32//31 36//35
f  36//36 32//32 34//36
f  37//37 35//33 33//33
f  33//34 35//34 37//38
f  36//35 38//39 34//35
f  34//36 38//40 36//36
f  35//33 37//37 39//37
f  39//38 37//38 35//34
f  38//39 36//35 40//39
f  40//40 36//36 38//40
f  41//41 39//37 37//37
f  37//38 39//38 41//42
f  40//39 42//43 38//39
f  38//40 42//44 40//40
f  39//37 41//41 43//41
f  43//42 41//42 39//38
f  42//43 40//39 44//43
f  44//44 40//40 42//44
f  45//45 43//41 41//41
f  41//42 43//42 45//46
f  44//43 46//47 42//43
f  42//44 46//48 44//44
f  43//41 45//45 47//45
f  47//46 45//46 43//42
f  46//47 44//43 48//47
f  48//48 44//44 46//48
f  45//45 48//47 47//45
f  47//46 48//48 45//46
f  48//47 45//45 46//47
f  46//48 45//46 48//48

# Mesh 'mesh2_mesh2-geometry' with 114 faces
g mesh2_mesh2-geometry
usemtl material_1_24
f  49/1/49 50/1/49 51/1/49
f  50/1/49 49/1/49 52/1/49
f  51/1/50 50/1/50 49/1/50
f  52/1/50 49/1/50 50/1/50
f  51/1/51 53/1/51 50/1/52
f  49/1/53 54/1/53 51/1/51
f  52/1/54 55/1/54 49/1/53
f  50/1/49 52/1/49 56/1/49
f  56/1/50 52/1/50 50/1/50
f  57/1/52 50/1/52 53/1/51
f  53/1/51 51/1/51 54/1/53
f  54/1/53 49/1/53 55/1/54
f  55/1/54 52/1/54 58/1/55
f  56/1/49 52/1/49 59/1/49
f  59/1/50 52/1/50 56/1/50
f  50/1/52 57/1/52 56/1/56
f  53/1/49 54/1/49 57/1/49
f  55/1/49 57/1/49 54/1/49
f  59/1/55 58/1/55 52/1/54
f  58/1/49 60/1/49 55/1/49
f  56/1/49 59/1/49 61/1/49
f  61/1/50 59/1/50 56/1/50
f  60/1/56 56/1/56 57/1/52
f  60/1/49 57/1/49 55/1/49
f  59/1/55 62/1/57 58/1/55
f  63/1/49 60/1/49 58/1/49
f  61/1/49 59/1/49 62/1/49
f  62/1/50 59/1/50 61/1/50
f  56/1/56 60/1/56 61/1/58
f  64/1/57 58/1/55 62/1/57
f  63/1/58 61/1/58 60/1/56
f  64/1/49 63/1/49 58/1/49
f  61/1/49 62/1/49 65/1/49
f  65/1/50 62/1/50 61/1/50
f  62/1/57 66/1/59 64/1/57
f  63/1/58 67/1/60 61/1/58
f  67/1/49 63/1/49 64/1/49
f  65/1/49 62/1/49 66/1/49
f  66/1/50 62/1/50 65/1/50
f  65/1/60 61/1/58 67/1/60
f  68/1/59 64/1/57 66/1/59
f  68/1/49 67/1/49 64/1/49
f  65/1/49 66/1/49 69/1/49
f  69/1/50 66/1/50 65/1/50
f  67/1/60 70/1/61 65/1/60
f  66/1/59 71/1/62 68/1/59
f  70/1/49 67/1/49 68/1/49
f  69/1/49 66/1/49 71/1/49
f  71/1/50 66/1/50 69/1/50
f  69/1/61 65/1/60 70/1/61
f  72/1/62 68/1/59 71/1/62
f  72/1/49 70/1/49 68/1/49
f  69/1/49 71/1/49 73/1/49
f  73/1/50 71/1/50 69/1/50
f  70/1/61 74/1/63 69/1/61
f  71/1/62 75/1/64 72/1/62
f  74/1/49 70/1/49 72/1/49
f  73/1/49 71/1/49 75/1/49
f  75/1/50 71/1/50 73/1/50
f  73/1/63 69/1/61 74/1/63
f  76/1/64 72/1/62 75/1/64
f  76/1/49 74/1/49 72/1/49
f  73/1/49 75/1/49 77/1/49
f  77/1/50 75/1/50 73/1/50
f  74/1/63 78/1/65 73/1/63
f  75/1/64 79/1/66 76/1/64
f  78/1/49 74/1/49 76/1/49
f  77/1/49 75/1/49 79/1/49
f  79/1/50 75/1/50 77/1/50
f  77/1/65 73/1/63 78/1/65
f  80/1/66 76/1/64 79/1/66
f  80/1/49 78/1/49 76/1/49
f  77/1/49 79/1/49 81/1/49
f  81/1/50 79/1/50 77/1/50
f  78/1/65 82/1/67 77/1/65
f  79/1/66 83/1/68 80/1/66
f  82/1/49 78/1/49 80/1/49
f  81/1/49 79/1/49 83/1/49
f  83/1/50 79/1/50 81/1/50
f  81/1/67 77/1/65 82/1/67
f  84/1/68 80/1/66 83/1/68
f  84/1/49 82/1/49 80/1/49
f  81/1/49 83/1/49 85/1/49
f  85/1/50 83/1/50 81/1/50
f  82/1/67 86/1/69 81/1/67
f  84/1/68 83/1/68 87/1/70
f  86/1/49 82/1/49 84/1/49
f  85/1/49 83/1/49 88/1/49
f  88/1/50 83/1/50 85/1/50
f  85/1/69 81/1/67 86/1/69
f  88/1/70 87/1/70 83/1/68
f  87/1/49 86/1/49 84/1/49
f  85/1/49 88/1/49 89/1/49
f  89/1/50 88/1/50 85/1/50
f  85/1/69 86/1/69 89/1/71
f  87/1/70 88/1/70 90/1/72
f  91/1/49 86/1/49 87/1/49
f  89/1/49 88/1/49 92/1/49
f  92/1/50 88/1/50 89/1/50
f  91/1/71 89/1/71 86/1/69
f  92/1/72 90/1/72 88/1/70
f  90/1/49 91/1/49 87/1/49
f  89/1/49 92/1/49 93/1/49
f  93/1/50 92/1/50 89/1/50
f  89/1/71 91/1/71 93/1/73
f  90/1/72 92/1/72 94/1/74
f  95/1/49 91/1/49 90/1/49
f  93/1/49 92/1/49 96/1/49
f  96/1/50 92/1/50 93/1/50
f  95/1/73 93/1/73 91/1/71
f  96/1/74 94/1/74 92/1/72
f  94/1/49 95/1/49 90/1/49
f  93/1/73 95/1/73 96/1/74
f  94/1/74 96/1/74 95/1/73

# Mesh 'mesh2_mesh2-geometry' with 70 faces
g mesh2_mesh2-geometry
usemtl material_2_1_8
f  50/2/72 53/3/74 51/4/74
f  51/4/74 54/5/73 49/6/73
f  49/6/73 55/7/71 52/8/71
f  53/3/74 50/2/72 57/9/72
f  54/5/73 51/4/74 53/3/74
f  55/7/71 49/6/73 54/5/73
f  58/10/69 52/8/71 55/7/71
f  56/11/70 57/9/72 50/2/72
f  57/12/50 54/13/50 53/14/50
f  54/13/50 57/12/50 55/15/50
f  52/8/71 58/10/69 59/16/69
f  55/15/50 60/17/50 58/18/50
f  57/9/72 56/11/70 60/19/70
f  55/15/50 57/12/50 60/17/50
f  58/10/69 62/20/67 59/16/69
f  58/18/50 60/17/50 63/21/50
f  61/22/68 60/19/70 56/11/70
f  62/20/67 58/10/69 64/23/67
f  60/19/70 61/22/68 63/24/68
f  58/18/50 63/21/50 64/25/50
f  64/23/67 66/26/65 62/20/67
f  61/22/68 67/27/66 63/24/68
f  64/25/50 63/21/50 67/28/50
f  67/27/66 61/22/68 65/29/66
f  66/26/65 64/23/67 68/30/65
f  64/25/50 67/28/50 68/31/50
f  65/29/66 70/32/64 67/27/66
f  68/30/65 71/33/63 66/26/65
f  68/31/50 67/28/50 70/34/50
f  70/32/64 65/29/66 69/35/64
f  71/33/63 68/30/65 72/36/63
f  68/31/50 70/34/50 72/37/50
f  69/35/64 74/38/62 70/32/64
f  72/36/63 75/39/61 71/33/63
f  72/37/50 70/34/50 74/40/50
f  74/38/62 69/35/64 73/41/62
f  75/39/61 72/36/63 76/42/61
f  72/37/50 74/40/50 76/43/50
f  73/41/62 78/44/59 74/38/62
f  76/42/61 79/1/60 75/39/61
f  76/43/50 74/40/50 78/45/50
f  78/44/59 73/41/62 77/46/59
f  79/1/60 76/42/61 80/47/60
f  76/43/50 78/45/50 80/48/50
f  77/46/59 82/49/57 78/44/59
f  80/50/60 83/51/58 79/52/60
f  80/48/50 78/45/50 82/53/50
f  82/49/57 77/46/59 81/54/57
f  83/51/58 80/50/60 84/55/58
f  80/48/50 82/53/50 84/56/50
f  81/54/57 86/57/55 82/49/57
f  87/58/56 83/51/58 84/55/58
f  84/56/50 82/53/50 86/59/50
f  86/57/55 81/54/57 85/60/55
f  83/51/58 87/58/56 88/61/56
f  84/56/50 86/59/50 87/62/50
f  89/63/54 86/57/55 85/60/55
f  90/64/52 88/61/56 87/58/56
f  87/62/50 86/59/50 91/65/50
f  86/57/55 89/63/54 91/66/54
f  88/61/56 90/64/52 92/67/52
f  87/62/50 91/65/50 90/68/50
f  93/69/53 91/66/54 89/63/54
f  94/70/51 92/67/52 90/64/52
f  90/68/50 91/65/50 95/71/50
f  91/66/54 93/69/53 95/72/53
f  92/67/52 94/70/51 96/73/51
f  90/68/50 95/71/50 94/74/50
f  96/73/51 95/72/53 93/69/53
f  95/72/53 96/73/51 94/70/51

# Mesh 'mesh3_mesh3-geometry' with 24 faces
g mesh3_mesh3-geometry
usemtl material_1_0
l  79 75
l  83 79
l  75 71
l  88 83
l  71 66
l  92 88
l  66 62
l  96 92
l  62 59
l  93 96
l  59 52
l  89 93
l  52 49
l  85 89
l  49 51
l  81 85
l  51 50
l  77 81
l  50 56
l  73 77
l  56 61
l  69 73
l  61 65
l  65 69

