# File produced by Open Asset Import Library (http://www.assimp.sf.net)
# (assimp v3.2.202087883)

mtllib model_normalized.mtl

# 162 vertex positions
v -0.088889 -0.166575 0.211924
v 0.097816 -0.166575 0.336509
v -0.088889 -0.166575 0.336509
v 0.097816 -0.166575 0.211924
v -0.088889 -0.186762 0.349364
v -0.088889 -0.107240 0.439684
v 0.004463 -0.166575 0.211924
v 0.097816 -0.123988 -0.047383
v 0.097816 -0.186762 0.349364
v -0.088889 -0.166575 0.087340
v 0.097816 -0.166575 0.087340
v 0.097816 -0.107240 0.439684
v 0.097816 -0.186762 0.439684
v -0.088889 -0.186762 0.439684
v -0.088889 -0.123988 -0.047383
v 0.097816 -0.186762 0.074485
v 0.097816 -0.043775 -0.103138
v -0.088889 -0.123988 -0.103138
v -0.088889 -0.186762 -0.047383
v 0.097816 -0.186762 0.013551
v 0.097816 -0.123988 -0.103138
v 0.097816 -0.081482 0.414101
v -0.088889 -0.043775 -0.103138
v -0.088889 -0.186762 0.013551
v -0.088889 -0.186762 0.074485
v 0.097816 -0.186762 -0.047383
v -0.088889 -0.081482 0.414101
v 0.051651 -0.083493 -0.103138
v 0.097816 0.132882 0.414101
v -0.088889 0.036439 -0.103138
v 0.004463 -0.186762 0.013551
v 0.015046 -0.104628 -0.103138
v 0.035212 -0.097288 -0.103138
v 0.062381 -0.064909 -0.103138
v 0.097816 0.036439 -0.047383
v 0.051139 0.132882 0.414101
v 0.051139 -0.071393 0.414101
v -0.088889 0.132882 0.414101
v -0.057476 -0.043775 -0.103138
v -0.088889 0.036439 -0.047383
v -0.006414 -0.104628 -0.103138
v 0.051651 -0.004056 -0.103138
v 0.035212 -0.097288 -0.245247
v 0.062381 -0.022641 -0.103138
v 0.062381 -0.064909 -0.245247
v 0.097816 0.036439 -0.103138
v 0.097816 0.090270 0.055006
v -0.042213 0.132882 0.414101
v -0.042213 -0.071393 0.414101
v -0.053749 -0.022641 -0.103138
v -0.053749 -0.064909 -0.103138
v 0.015046 -0.104628 -0.245247
v 0.015046 0.017078 -0.103138
v -0.026579 -0.097288 -0.103138
v -0.006414 -0.104628 -0.245247
v 0.035212 0.009739 -0.103138
v 0.051651 -0.083493 -0.245247
v 0.066108 -0.043775 -0.103138
v 0.066108 -0.043775 -0.245247
v 0.097816 0.090270 -0.047383
v 0.097816 0.132882 0.157383
v 0.051139 0.158381 0.465613
v -0.042213 0.158381 0.414101
v 0.051139 -0.071393 0.465613
v -0.088889 0.073192 -0.047383
v -0.043019 -0.004056 -0.103138
v -0.057476 -0.043775 -0.245247
v -0.043019 -0.083493 -0.103138
v -0.006414 0.017078 -0.103138
v -0.026579 -0.097288 -0.245247
v 0.051651 -0.004056 -0.245247
v 0.111658 -0.130687 -0.245247
v 0.062381 -0.022641 -0.245247
v 0.089172 0.073192 -0.047383
v 0.022615 0.090270 0.055006
v -0.088889 0.090270 0.055006
v 0.022615 0.132882 0.344277
v 0.051139 0.158381 0.414101
v 0.004463 0.132882 0.344277
v -0.042213 0.158381 0.465613
v -0.042213 -0.071393 0.465613
v -0.026579 0.009739 -0.103138
v -0.043019 -0.004056 -0.245247
v -0.053749 -0.022641 -0.245247
v -0.043019 -0.083493 -0.245247
v -0.053749 -0.064909 -0.245247
v -0.103024 -0.130687 -0.245247
v 0.035212 0.009739 -0.245247
v 0.015046 0.017078 -0.245247
v 0.089172 0.090270 -0.047383
v 0.004463 0.090270 0.055006
v -0.088889 0.132882 0.157383
v 0.022615 0.132882 0.285748
v -0.088889 0.090270 -0.047383
v -0.158038 0.073192 -0.095623
v -0.026579 0.009739 -0.245247
v -0.103024 0.052797 -0.245247
v -0.006414 0.017078 -0.245247
v 0.111658 0.052797 -0.245247
v -0.103024 -0.130687 -0.279385
v 0.022615 0.090270 0.003806
v 0.089172 0.087622 -0.130454
v -0.013688 0.090270 0.055006
v -0.013688 0.212646 0.116610
v 0.004463 0.090270 0.003806
v 0.004463 0.132882 0.285748
v 0.022615 0.212646 0.252316
v 0.022615 0.240738 0.252316
v -0.158038 0.171628 -0.047383
v -0.013688 0.090270 0.003806
v -0.158038 0.073192 -0.047383
v 0.089172 0.073192 -0.095623
v 0.111658 -0.130687 -0.279385
v 0.111658 0.052797 -0.279385
v 0.022615 0.171628 0.003806
v 0.089172 0.122461 -0.144893
v 0.022615 0.212646 0.116610
v -0.013688 0.240738 0.252316
v -0.076355 0.090270 -0.047383
v -0.136922 -0.164585 -0.385900
v -0.103024 0.052797 -0.279385
v 0.089172 0.171628 -0.047383
v -0.013688 0.212646 0.252316
v 0.022615 0.240738 0.116610
v -0.013688 0.132882 0.344277
v -0.076355 0.171628 -0.047383
v -0.158038 0.087622 -0.130454
v 0.145555 -0.164585 -0.385900
v -0.136922 0.086694 -0.385900
v 0.145555 0.086694 -0.385900
v 0.004463 0.171628 0.003806
v 0.089172 0.157299 -0.130454
v -0.013688 0.171628 0.003806
v -0.013688 0.132882 0.285748
v -0.013688 0.240738 0.116610
v 0.089172 0.171628 -0.095866
v -0.158038 0.122461 -0.144893
v 0.135235 -0.154265 -0.385900
v -0.126603 0.076375 -0.385900
v -0.158038 0.171628 -0.095866
v -0.158038 0.157299 -0.130454
v -0.126603 -0.154265 -0.385900
v 0.135235 0.076375 -0.385900
v -0.084833 -0.112496 -0.289500
v 0.093466 0.034606 -0.289500
v 0.093466 -0.112496 -0.289500
v -0.084833 0.034606 -0.289500
v 0.011804 -0.043775 -0.052966
v 0.004463 -0.043775 -0.052966
v 0.004463 -0.051115 -0.052966
v 0.004463 -0.043775 -0.045626
v 0.004463 -0.036434 -0.052966
v -0.002877 -0.043775 -0.052966
v 0.004463 -0.043775 -0.060307
v -0.088889 -0.043775 0.211924
v -0.088889 -0.003401 0.211924
v -0.088889 -0.084149 0.211924
v 0.097816 -0.043775 0.211924
v 0.097816 -0.003668 0.211924
v 0.097816 -0.084149 0.211924
v 0.004463 -0.186762 -0.016922
v 0.004463 -0.166575 0.189902

# 10 UV coordinates
vt 0 0 0
vt 0.109587 0 0
vt 0.146193 -0.233865 0
vt 0.146193 0 0
vt 0.109587 -0.233865 0
vt 0.07298 -0.233865 0
vt 0.07298 -0 0
vt 0.036373 -0.233865 0
vt 0.036373 -0 0
vt -0 -0.233865 0

# 66 vertex normals
vn 0 -0.0254 0
vn 0 -0.0136366 -0.021429
vn -0.0254 0 0
vn 0.0254 0 0
vn 0 -0 0.0254
vn 0 -0.0136366 0.021429
vn 0 0 -0.0254
vn 0 0.0178992 0.0180216
vn 0.0127 -0.021997 0
vn 0.0194575 -0.0163268 0
vn 0.0238682 -0.00868731 0
vn 0 0.0254 0
vn 0.00441066 -0.0250141 0
vn -0.00441066 -0.0250141 0
vn -0.0238682 0.00868731 0
vn -0.0238682 -0.00868731 0
vn -0.0127 -0.021997 0
vn 0.0238682 0.00868731 0
vn 0.0194575 0.0163268 0
vn 0.0127 0.021997 0
vn 0 0.02345 -0.0097599
vn -0.0194575 0.0163268 0
vn -0.0194575 -0.0163268 0
vn 0.00441066 0.0250141 0
vn -0.00441066 0.0250141 0
vn -0.0127 0.021997 0
vn 0 -0.0114218 0.0226871
vn 0 0.0164795 0.0193283
vn 0.0154858 -0 0.0201333
vn 0 -0.00981753 -0.023426
vn -0 -0.024204 0.00770247
vn -0.0160692 0 0.0196708
vn -0.024204 0 0.00770247
vn 0.024204 0 0.00770247
vn 0 0.024204 0.00770247
vn 0 0.0216584 -0.0132692
vn 0 0.023306 -0.0100991
vn 0 -0.023306 -0.0100991
vn 0.023306 0 -0.0100991
vn -0.023306 0 -0.0100991
vn 0 0.0136366 0.021429
vn 0 0.0136366 -0.021429
vn 0 -0.0178992 -0.0180216
vn 0 -0.02345 0.0097599
vn 0 0.0114218 -0.0226871
vn 0 -0.0164795 -0.0193283
vn -0.0154858 0 -0.0201333
vn 0 0.00981753 0.023426
vn 0 0.0234666 0.00972015
vn 0 0.0179605 0.0179605
vn 0 0.024204 -0.00770247
vn 0.0160692 0 -0.0196708
vn 0.024204 0 -0.00770247
vn -0.024204 0 -0.00770247
vn 0 -0.024204 -0.00770247
vn 0 -0.0216584 0.0132692
vn 0 -0.0179605 0.0179605
vn -0 -0.0234666 0.00972015
vn 0 -0.023306 0.0100991
vn 0 0.023306 0.0100991
vn -0.023306 0 0.0100991
vn 0.023306 0 0.0100991
vn 0 -0.0179605 -0.0179605
vn 0 -0.0234666 -0.00972015
vn 0 0.0179605 -0.0179605
vn 0 0.0234666 -0.00972015

# Mesh 'mesh1_mesh1-geometry' with 313 faces
g mesh1_mesh1-geometry
usemtl material_0_24
f  1/1/1 2/1/1 3/1/1
f  2/1/1 1/1/1 4/1/1
f  2/1/2 5/1/2 3/1/2
f  3/1/3 6/1/3 1/1/3
f  4/1/1 1/1/1 7/1/1
f  4/1/4 8/1/4 2/1/4
f  5/1/2 2/1/2 9/1/2
f  5/1/3 6/1/3 3/1/3
f  1/1/3 6/1/3 10/1/3
f  10/1/1 7/1/1 1/1/1
f  7/1/1 10/1/1 4/1/1
f  11/1/4 8/1/4 4/1/4
f  12/1/4 2/1/4 8/1/4
f  2/1/4 13/1/4 9/1/4
f  13/1/1 5/1/1 9/1/1
f  6/1/3 5/1/3 14/1/3
f  10/1/3 6/1/3 15/1/3
f  4/1/1 10/1/1 11/1/1
f  16/1/4 8/1/4 11/1/4
f  13/1/4 2/1/4 12/1/4
f  8/1/4 17/1/4 12/1/4
f  5/1/1 13/1/1 14/1/1
f  13/1/5 6/1/5 14/1/5
f  15/1/3 6/1/3 18/1/3
f  19/1/3 10/1/3 15/1/3
f  10/1/6 16/1/6 11/1/6
f  20/1/4 8/1/4 16/1/4
f  6/1/5 13/1/5 12/1/5
f  17/1/4 8/1/4 21/1/4
f  12/1/4 17/1/4 22/1/4
f  18/1/3 6/1/3 23/1/3
f  18/1/1 8/1/1 15/1/1
f  24/1/3 10/1/3 19/1/3
f  8/1/7 19/1/7 15/1/7
f  16/1/6 10/1/6 25/1/6
f  8/1/4 20/1/4 26/1/4
f  16/1/1 24/1/1 20/1/1
f  12/1/8 27/1/8 6/1/8
f  8/1/1 18/1/1 21/1/1
f  21/1/7 28/1/7 17/1/7
f  22/1/4 17/1/4 29/1/4
f  27/1/8 12/1/8 22/1/8
f  23/1/3 6/1/3 27/1/3
f  30/1/7 18/1/7 23/1/7
f  10/1/3 24/1/3 25/1/3
f  19/1/1 31/1/1 24/1/1
f  19/1/7 8/1/7 26/1/7
f  24/1/1 16/1/1 25/1/1
f  20/1/1 19/1/1 26/1/1
f  20/1/1 24/1/1 31/1/1
f  32/1/7 21/1/7 18/1/7
f  28/1/7 21/1/7 33/1/7
f  17/1/7 28/1/7 34/1/7
f  29/1/4 17/1/4 35/1/4
f  36/1/5 22/1/5 29/1/5
f  22/1/5 37/1/5 27/1/5
f  23/1/3 27/1/3 38/1/3
f  30/1/7 39/1/7 18/1/7
f  30/1/3 23/1/3 40/1/3
f  31/1/1 19/1/1 20/1/1
f  33/1/7 21/1/7 32/1/7
f  32/1/7 18/1/7 41/1/7
f  42/1/7 28/1/7 33/1/7
f  43/1/9 28/1/10 33/1/9
f  44/1/7 34/1/7 28/1/7
f  28/1/10 45/1/11 34/1/11
f  17/1/7 34/1/7 46/1/7
f  35/1/4 17/1/4 46/1/4
f  29/1/4 35/1/4 47/1/4
f  22/1/5 36/1/5 37/1/5
f  29/1/12 48/1/12 36/1/12
f  27/1/5 37/1/5 49/1/5
f  27/1/5 49/1/5 38/1/5
f  23/1/3 38/1/3 40/1/3
f  30/1/7 50/1/7 39/1/7
f  51/1/7 18/1/7 39/1/7
f  40/1/12 46/1/12 30/1/12
f  52/1/13 33/1/9 32/1/13
f  53/1/7 33/1/7 32/1/7
f  41/1/7 18/1/7 54/1/7
f  55/1/14 32/1/13 41/1/14
f  53/1/7 32/1/7 41/1/7
f  44/1/7 28/1/7 42/1/7
f  42/1/7 33/1/7 56/1/7
f  28/1/10 43/1/9 57/1/10
f  33/1/9 52/1/13 43/1/9
f  34/1/7 44/1/7 58/1/7
f  45/1/11 28/1/10 57/1/10
f  59/1/4 34/1/11 45/1/11
f  46/1/7 34/1/7 58/1/7
f  46/1/12 40/1/12 35/1/12
f  47/1/4 35/1/4 60/1/4
f  29/1/4 47/1/4 61/1/4
f  37/1/3 62/1/3 36/1/3
f  36/1/4 62/1/4 37/1/4
f  48/1/12 29/1/12 38/1/12
f  36/1/5 63/1/5 48/1/5
f  48/1/7 63/1/7 36/1/7
f  64/1/1 49/1/1 37/1/1
f  38/1/5 49/1/5 48/1/5
f  40/1/3 38/1/3 65/1/3
f  30/1/7 66/1/7 50/1/7
f  50/1/7 51/1/7 39/1/7
f  50/1/15 67/1/3 39/1/3
f  68/1/7 18/1/7 51/1/7
f  67/1/3 51/1/16 39/1/3
f  46/1/7 53/1/7 30/1/7
f  32/1/13 55/1/14 52/1/13
f  56/1/7 33/1/7 53/1/7
f  54/1/7 18/1/7 68/1/7
f  69/1/7 41/1/7 54/1/7
f  70/1/17 41/1/14 54/1/17
f  41/1/14 70/1/17 55/1/14
f  53/1/7 41/1/7 69/1/7
f  42/1/7 46/1/7 44/1/7
f  44/1/18 71/1/19 42/1/19
f  71/1/19 56/1/20 42/1/19
f  56/1/7 46/1/7 42/1/7
f  43/1/5 72/1/5 57/1/5
f  52/1/5 72/1/5 43/1/5
f  58/1/4 73/1/18 44/1/18
f  44/1/7 46/1/7 58/1/7
f  34/1/11 59/1/4 58/1/4
f  57/1/5 72/1/5 45/1/5
f  45/1/5 72/1/5 59/1/5
f  74/1/7 35/1/7 40/1/7
f  35/1/7 74/1/7 60/1/7
f  60/1/12 75/1/12 47/1/12
f  76/1/21 61/1/21 47/1/21
f  61/1/12 77/1/12 29/1/12
f  62/1/3 37/1/3 64/1/3
f  64/1/4 37/1/4 62/1/4
f  36/1/3 62/1/3 78/1/3
f  78/1/4 62/1/4 36/1/4
f  38/1/12 29/1/12 79/1/12
f  63/1/5 36/1/5 78/1/5
f  78/1/7 36/1/7 63/1/7
f  48/1/3 80/1/3 63/1/3
f  49/1/1 64/1/1 81/1/1
f  49/1/3 80/1/3 48/1/3
f  65/1/3 38/1/3 76/1/3
f  74/1/7 40/1/7 65/1/7
f  30/1/7 82/1/7 66/1/7
f  83/1/22 50/1/15 66/1/22
f  66/1/7 51/1/7 50/1/7
f  67/1/3 50/1/15 84/1/15
f  51/1/16 85/1/23 68/1/23
f  66/1/7 68/1/7 51/1/7
f  51/1/16 67/1/3 86/1/16
f  53/1/7 46/1/7 56/1/7
f  30/1/7 53/1/7 69/1/7
f  87/1/5 52/1/5 55/1/5
f  88/1/20 53/1/24 56/1/20
f  66/1/7 54/1/7 68/1/7
f  85/1/23 54/1/17 68/1/23
f  69/1/7 54/1/7 82/1/7
f  54/1/17 85/1/23 70/1/17
f  87/1/5 55/1/5 70/1/5
f  89/1/24 69/1/25 53/1/24
f  71/1/19 44/1/18 73/1/18
f  56/1/20 71/1/19 88/1/20
f  72/1/5 52/1/5 87/1/5
f  73/1/18 58/1/4 59/1/4
f  72/1/5 73/1/5 59/1/5
f  90/1/7 60/1/7 74/1/7
f  75/1/12 60/1/12 91/1/12
f  76/1/21 47/1/21 75/1/21
f  61/1/21 76/1/21 92/1/21
f  77/1/12 61/1/12 93/1/12
f  79/1/12 29/1/12 77/1/12
f  80/1/5 64/1/5 62/1/5
f  78/1/12 80/1/12 62/1/12
f  38/1/12 79/1/12 92/1/12
f  80/1/12 78/1/12 63/1/12
f  64/1/5 80/1/5 81/1/5
f  80/1/3 49/1/3 81/1/3
f  76/1/3 38/1/3 92/1/3
f  94/1/3 65/1/3 76/1/3
f  65/1/1 95/1/1 74/1/1
f  30/1/7 69/1/7 82/1/7
f  96/1/26 66/1/22 82/1/26
f  82/1/7 54/1/7 66/1/7
f  50/1/15 83/1/22 84/1/15
f  66/1/22 96/1/26 83/1/22
f  84/1/5 97/1/5 67/1/5
f  85/1/23 51/1/16 86/1/16
f  87/1/5 86/1/5 67/1/5
f  53/1/24 88/1/20 89/1/24
f  98/1/25 82/1/26 69/1/25
f  87/1/5 70/1/5 85/1/5
f  69/1/25 89/1/24 98/1/25
f  73/1/5 99/1/5 71/1/5
f  71/1/5 99/1/5 88/1/5
f  100/1/1 72/1/1 87/1/1
f  99/1/5 73/1/5 72/1/5
f  101/1/12 60/1/12 90/1/12
f  74/1/4 102/1/4 90/1/4
f  91/1/12 60/1/12 103/1/12
f  76/1/21 75/1/21 91/1/21
f  75/1/27 104/1/27 91/1/27
f  105/1/1 75/1/1 91/1/1
f  106/1/12 61/1/12 92/1/12
f  93/1/12 61/1/12 106/1/12
f  107/1/4 77/1/4 93/1/4
f  93/1/12 79/1/12 77/1/12
f  108/1/28 79/1/28 77/1/28
f  92/1/12 79/1/12 106/1/12
f  94/1/5 109/1/5 65/1/5
f  76/1/12 110/1/12 94/1/12
f  95/1/1 65/1/1 111/1/1
f  74/1/1 95/1/1 112/1/1
f  82/1/26 98/1/25 96/1/26
f  83/1/5 97/1/5 84/1/5
f  96/1/5 97/1/5 83/1/5
f  87/1/5 67/1/5 97/1/5
f  87/1/5 85/1/5 86/1/5
f  88/1/5 99/1/5 89/1/5
f  89/1/5 97/1/5 98/1/5
f  72/1/1 100/1/1 113/1/1
f  97/1/3 100/1/3 87/1/3
f  72/1/4 114/1/4 99/1/4
f  103/1/12 60/1/12 101/1/12
f  90/1/29 115/1/29 101/1/29
f  102/1/4 74/1/4 112/1/4
f  90/1/4 102/1/4 116/1/4
f  76/1/21 91/1/21 103/1/21
f  91/1/27 104/1/27 103/1/27
f  104/1/27 75/1/27 117/1/27
f  75/1/1 105/1/1 101/1/1
f  79/1/12 93/1/12 106/1/12
f  106/1/30 107/1/30 93/1/30
f  77/1/4 107/1/4 108/1/4
f  79/1/28 108/1/28 118/1/28
f  119/1/5 109/1/5 94/1/5
f  65/1/5 109/1/5 111/1/5
f  110/1/12 76/1/12 103/1/12
f  94/1/12 110/1/12 119/1/12
f  109/1/3 95/1/3 111/1/3
f  98/1/5 97/1/5 96/1/5
f  89/1/5 99/1/5 97/1/5
f  120/1/31 113/1/31 100/1/31
f  114/1/4 72/1/4 113/1/4
f  100/1/3 97/1/3 121/1/3
f  121/1/12 99/1/12 114/1/12
f  101/1/12 110/1/12 103/1/12
f  115/1/29 90/1/29 122/1/29
f  115/1/4 75/1/4 101/1/4
f  105/1/7 115/1/7 101/1/7
f  90/1/4 116/1/4 122/1/4
f  104/1/3 110/1/3 103/1/3
f  75/1/4 115/1/4 117/1/4
f  107/1/1 104/1/1 117/1/1
f  110/1/12 101/1/12 105/1/12
f  107/1/30 106/1/30 123/1/30
f  108/1/4 107/1/4 124/1/4
f  124/1/12 118/1/12 108/1/12
f  79/1/28 118/1/28 125/1/28
f  109/1/5 119/1/5 126/1/5
f  110/1/32 126/1/32 119/1/32
f  95/1/3 109/1/3 127/1/3
f  99/1/12 121/1/12 97/1/12
f  113/1/31 120/1/31 128/1/31
f  100/1/33 129/1/33 120/1/33
f  113/1/34 130/1/34 114/1/34
f  129/1/33 100/1/33 121/1/33
f  130/1/35 121/1/35 114/1/35
f  122/1/12 131/1/12 115/1/12
f  115/1/7 105/1/7 131/1/7
f  122/1/4 116/1/4 132/1/4
f  110/1/3 104/1/3 133/1/3
f  117/1/4 115/1/4 124/1/4
f  104/1/1 107/1/1 123/1/1
f  117/1/4 124/1/4 107/1/4
f  110/1/7 131/1/7 105/1/7
f  123/1/30 106/1/30 134/1/30
f  118/1/12 124/1/12 135/1/12
f  118/1/3 134/1/3 125/1/3
f  126/1/12 136/1/12 109/1/12
f  126/1/32 110/1/32 133/1/32
f  127/1/3 109/1/3 137/1/3
f  138/1/7 128/1/7 120/1/7
f  130/1/34 113/1/34 128/1/34
f  129/1/7 139/1/7 120/1/7
f  121/1/35 130/1/35 129/1/35
f  131/1/12 122/1/12 133/1/12
f  133/1/36 115/1/36 131/1/36
f  122/1/4 132/1/4 136/1/4
f  133/1/3 104/1/3 135/1/3
f  131/1/7 110/1/7 133/1/7
f  115/1/36 135/1/36 124/1/36
f  123/1/3 118/1/3 104/1/3
f  134/1/3 118/1/3 123/1/3
f  135/1/3 104/1/3 118/1/3
f  126/1/12 122/1/12 136/1/12
f  109/1/12 136/1/12 140/1/12
f  133/1/12 122/1/12 126/1/12
f  137/1/3 109/1/3 141/1/3
f  128/1/7 138/1/7 130/1/7
f  138/1/7 120/1/7 142/1/7
f  129/1/7 143/1/7 139/1/7
f  142/1/7 120/1/7 139/1/7
f  130/1/7 143/1/7 129/1/7
f  135/1/36 115/1/36 133/1/36
f  141/1/3 109/1/3 140/1/3
f  143/1/7 130/1/7 138/1/7
f  144/1/37 138/1/37 142/1/37
f  145/1/38 139/1/38 143/1/38
f  139/1/39 144/1/39 142/1/39
f  146/1/40 143/1/40 138/1/40
f  138/1/37 144/1/37 146/1/37
f  139/1/38 145/1/38 147/1/38
f  143/1/40 146/1/40 145/1/40
f  144/1/39 139/1/39 147/1/39

# Mesh 'mesh1_mesh1-geometry' with 313 faces
g mesh1_mesh1-geometry
usemtl material_1_24
f  3/1/12 2/1/12 1/1/12
f  4/1/12 1/1/12 2/1/12
f  3/1/41 5/1/41 2/1/41
f  1/1/4 6/1/4 3/1/4
f  7/1/12 1/1/12 4/1/12
f  2/1/3 8/1/3 4/1/3
f  9/1/41 2/1/41 5/1/41
f  3/1/4 6/1/4 5/1/4
f  10/1/4 6/1/4 1/1/4
f  1/1/12 7/1/12 10/1/12
f  4/1/12 10/1/12 7/1/12
f  4/1/3 8/1/3 11/1/3
f  8/1/3 2/1/3 12/1/3
f  9/1/3 13/1/3 2/1/3
f  9/1/12 5/1/12 13/1/12
f  14/1/4 5/1/4 6/1/4
f  15/1/4 6/1/4 10/1/4
f  11/1/12 10/1/12 4/1/12
f  11/1/3 8/1/3 16/1/3
f  12/1/3 2/1/3 13/1/3
f  12/1/3 17/1/3 8/1/3
f  14/1/12 13/1/12 5/1/12
f  14/1/7 6/1/7 13/1/7
f  18/1/4 6/1/4 15/1/4
f  15/1/4 10/1/4 19/1/4
f  11/1/42 16/1/42 10/1/42
f  16/1/3 8/1/3 20/1/3
f  12/1/7 13/1/7 6/1/7
f  21/1/3 8/1/3 17/1/3
f  22/1/3 17/1/3 12/1/3
f  23/1/4 6/1/4 18/1/4
f  15/1/12 8/1/12 18/1/12
f  19/1/4 10/1/4 24/1/4
f  15/1/5 19/1/5 8/1/5
f  25/1/42 10/1/42 16/1/42
f  26/1/3 20/1/3 8/1/3
f  20/1/12 24/1/12 16/1/12
f  6/1/43 27/1/43 12/1/43
f  21/1/12 18/1/12 8/1/12
f  17/1/5 28/1/5 21/1/5
f  29/1/3 17/1/3 22/1/3
f  22/1/43 12/1/43 27/1/43
f  27/1/4 6/1/4 23/1/4
f  23/1/5 18/1/5 30/1/5
f  25/1/4 24/1/4 10/1/4
f  24/1/12 31/1/12 19/1/12
f  26/1/5 8/1/5 19/1/5
f  25/1/12 16/1/12 24/1/12
f  26/1/12 19/1/12 20/1/12
f  31/1/12 24/1/12 20/1/12
f  18/1/5 21/1/5 32/1/5
f  33/1/5 21/1/5 28/1/5
f  34/1/5 28/1/5 17/1/5
f  35/1/3 17/1/3 29/1/3
f  29/1/7 22/1/7 36/1/7
f  27/1/7 37/1/7 22/1/7
f  38/1/4 27/1/4 23/1/4
f  18/1/5 39/1/5 30/1/5
f  40/1/4 23/1/4 30/1/4
f  20/1/12 19/1/12 31/1/12
f  32/1/5 21/1/5 33/1/5
f  41/1/5 18/1/5 32/1/5
f  33/1/5 28/1/5 42/1/5
f  33/1/26 28/1/22 43/1/26
f  28/1/5 34/1/5 44/1/5
f  34/1/15 45/1/15 28/1/22
f  46/1/5 34/1/5 17/1/5
f  46/1/3 17/1/3 35/1/3
f  47/1/3 35/1/3 29/1/3
f  37/1/7 36/1/7 22/1/7
f  36/1/1 48/1/1 29/1/1
f  49/1/7 37/1/7 27/1/7
f  38/1/7 49/1/7 27/1/7
f  40/1/4 38/1/4 23/1/4
f  39/1/5 50/1/5 30/1/5
f  39/1/5 18/1/5 51/1/5
f  30/1/1 46/1/1 40/1/1
f  32/1/25 33/1/26 52/1/25
f  32/1/5 33/1/5 53/1/5
f  54/1/5 18/1/5 41/1/5
f  41/1/24 32/1/25 55/1/24
f  41/1/5 32/1/5 53/1/5
f  42/1/5 28/1/5 44/1/5
f  56/1/5 33/1/5 42/1/5
f  57/1/22 43/1/26 28/1/22
f  43/1/26 52/1/25 33/1/26
f  58/1/5 44/1/5 34/1/5
f  57/1/22 28/1/22 45/1/15
f  45/1/15 34/1/15 59/1/3
f  58/1/5 34/1/5 46/1/5
f  35/1/1 40/1/1 46/1/1
f  60/1/3 35/1/3 47/1/3
f  61/1/3 47/1/3 29/1/3
f  38/1/1 29/1/1 48/1/1
f  37/1/12 49/1/12 64/1/12
f  48/1/7 49/1/7 38/1/7
f  65/1/4 38/1/4 40/1/4
f  50/1/5 66/1/5 30/1/5
f  39/1/5 51/1/5 50/1/5
f  39/1/4 67/1/4 50/1/11
f  51/1/5 18/1/5 68/1/5
f  39/1/4 51/1/18 67/1/4
f  30/1/5 53/1/5 46/1/5
f  52/1/25 55/1/24 32/1/25
f  53/1/5 33/1/5 56/1/5
f  68/1/5 18/1/5 54/1/5
f  54/1/5 41/1/5 69/1/5
f  54/1/20 41/1/24 70/1/20
f  55/1/24 70/1/20 41/1/24
f  69/1/5 41/1/5 53/1/5
f  44/1/5 46/1/5 42/1/5
f  42/1/23 71/1/23 44/1/16
f  42/1/23 56/1/17 71/1/23
f  42/1/5 46/1/5 56/1/5
f  57/1/7 72/1/7 43/1/7
f  43/1/7 72/1/7 52/1/7
f  44/1/16 73/1/16 58/1/3
f  58/1/5 46/1/5 44/1/5
f  58/1/3 59/1/3 34/1/15
f  45/1/7 72/1/7 57/1/7
f  59/1/7 72/1/7 45/1/7
f  40/1/5 35/1/5 74/1/5
f  60/1/5 74/1/5 35/1/5
f  47/1/1 75/1/1 60/1/1
f  47/1/44 61/1/44 76/1/44
f  29/1/1 77/1/1 61/1/1
f  79/1/1 29/1/1 38/1/1
f  63/1/4 80/1/4 48/1/4
f  81/1/12 64/1/12 49/1/12
f  48/1/4 80/1/4 49/1/4
f  76/1/4 38/1/4 65/1/4
f  65/1/5 40/1/5 74/1/5
f  66/1/5 82/1/5 30/1/5
f  66/1/10 50/1/11 83/1/10
f  50/1/5 51/1/5 66/1/5
f  84/1/11 50/1/11 67/1/4
f  68/1/19 85/1/19 51/1/18
f  51/1/5 68/1/5 66/1/5
f  86/1/18 67/1/4 51/1/18
f  56/1/5 46/1/5 53/1/5
f  69/1/5 53/1/5 30/1/5
f  55/1/7 52/1/7 87/1/7
f  56/1/17 53/1/14 88/1/17
f  68/1/5 54/1/5 66/1/5
f  68/1/19 54/1/20 85/1/19
f  82/1/5 54/1/5 69/1/5
f  70/1/20 85/1/19 54/1/20
f  70/1/7 55/1/7 87/1/7
f  53/1/14 69/1/13 89/1/14
f  73/1/16 44/1/16 71/1/23
f  88/1/17 71/1/23 56/1/17
f  87/1/7 52/1/7 72/1/7
f  59/1/3 58/1/3 73/1/16
f  59/1/7 73/1/7 72/1/7
f  74/1/5 60/1/5 90/1/5
f  91/1/1 60/1/1 75/1/1
f  75/1/44 47/1/44 76/1/44
f  92/1/44 76/1/44 61/1/44
f  93/1/1 61/1/1 77/1/1
f  77/1/1 29/1/1 79/1/1
f  62/1/7 64/1/7 80/1/7
f  62/1/1 80/1/1 78/1/1
f  92/1/1 79/1/1 38/1/1
f  63/1/1 78/1/1 80/1/1
f  81/1/7 80/1/7 64/1/7
f  81/1/4 49/1/4 80/1/4
f  92/1/4 38/1/4 76/1/4
f  76/1/4 65/1/4 94/1/4
f  74/1/12 95/1/12 65/1/12
f  82/1/5 69/1/5 30/1/5
f  82/1/9 66/1/10 96/1/9
f  66/1/5 54/1/5 82/1/5
f  84/1/11 83/1/10 50/1/11
f  83/1/10 96/1/9 66/1/10
f  67/1/7 97/1/7 84/1/7
f  86/1/18 51/1/18 85/1/19
f  67/1/7 86/1/7 87/1/7
f  89/1/14 88/1/17 53/1/14
f  69/1/13 82/1/9 98/1/13
f  85/1/7 70/1/7 87/1/7
f  98/1/13 89/1/14 69/1/13
f  71/1/7 99/1/7 73/1/7
f  88/1/7 99/1/7 71/1/7
f  87/1/12 72/1/12 100/1/12
f  72/1/7 73/1/7 99/1/7
f  90/1/1 60/1/1 101/1/1
f  90/1/3 102/1/3 74/1/3
f  103/1/1 60/1/1 91/1/1
f  91/1/44 75/1/44 76/1/44
f  91/1/45 104/1/45 75/1/45
f  91/1/12 75/1/12 105/1/12
f  92/1/1 61/1/1 106/1/1
f  106/1/1 61/1/1 93/1/1
f  93/1/3 77/1/3 107/1/3
f  77/1/1 79/1/1 93/1/1
f  77/1/46 79/1/46 108/1/46
f  106/1/1 79/1/1 92/1/1
f  65/1/7 109/1/7 94/1/7
f  94/1/1 110/1/1 76/1/1
f  111/1/12 65/1/12 95/1/12
f  112/1/12 95/1/12 74/1/12
f  96/1/9 98/1/13 82/1/9
f  84/1/7 97/1/7 83/1/7
f  83/1/7 97/1/7 96/1/7
f  97/1/7 67/1/7 87/1/7
f  86/1/7 85/1/7 87/1/7
f  89/1/7 99/1/7 88/1/7
f  98/1/7 97/1/7 89/1/7
f  113/1/12 100/1/12 72/1/12
f  87/1/4 100/1/4 97/1/4
f  99/1/3 114/1/3 72/1/3
f  101/1/1 60/1/1 103/1/1
f  101/1/47 115/1/47 90/1/47
f  112/1/3 74/1/3 102/1/3
f  116/1/3 102/1/3 90/1/3
f  103/1/44 91/1/44 76/1/44
f  103/1/45 104/1/45 91/1/45
f  117/1/45 75/1/45 104/1/45
f  101/1/12 105/1/12 75/1/12
f  106/1/1 93/1/1 79/1/1
f  93/1/48 107/1/48 106/1/48
f  108/1/3 107/1/3 77/1/3
f  118/1/46 108/1/46 79/1/46
f  94/1/7 109/1/7 119/1/7
f  111/1/7 109/1/7 65/1/7
f  103/1/1 76/1/1 110/1/1
f  119/1/1 110/1/1 94/1/1
f  111/1/4 95/1/4 109/1/4
f  95/1/49 112/1/49 127/1/50
f  96/1/7 97/1/7 98/1/7
f  97/1/7 99/1/7 89/1/7
f  100/1/51 113/1/51 120/1/51
f  113/1/3 72/1/3 114/1/3
f  121/1/4 97/1/4 100/1/4
f  114/1/1 99/1/1 121/1/1
f  103/1/1 110/1/1 101/1/1
f  122/1/47 90/1/47 115/1/47
f  101/1/3 75/1/3 115/1/3
f  101/1/5 115/1/5 105/1/5
f  102/1/50 127/1/50 112/1/49
f  102/1/50 116/1/5 127/1/50
f  122/1/3 116/1/3 90/1/3
f  103/1/4 110/1/4 104/1/4
f  117/1/3 115/1/3 75/1/3
f  117/1/12 104/1/12 107/1/12
f  105/1/1 101/1/1 110/1/1
f  123/1/48 106/1/48 107/1/48
f  124/1/3 107/1/3 108/1/3
f  108/1/1 118/1/1 124/1/1
f  125/1/46 118/1/46 79/1/46
f  126/1/7 119/1/7 109/1/7
f  119/1/52 126/1/52 110/1/52
f  127/1/4 109/1/4 95/1/4
f  97/1/1 121/1/1 99/1/1
f  128/1/51 120/1/51 113/1/51
f  120/1/53 129/1/53 100/1/53
f  114/1/54 130/1/54 113/1/54
f  121/1/53 100/1/53 129/1/53
f  114/1/55 121/1/55 130/1/55
f  115/1/1 131/1/1 122/1/1
f  131/1/5 105/1/5 115/1/5
f  137/1/5 127/1/50 116/1/5
f  132/1/3 116/1/3 122/1/3
f  133/1/4 104/1/4 110/1/4
f  124/1/3 115/1/3 117/1/3
f  123/1/12 107/1/12 104/1/12
f  107/1/3 124/1/3 117/1/3
f  105/1/5 131/1/5 110/1/5
f  134/1/48 106/1/48 123/1/48
f  135/1/1 124/1/1 118/1/1
f  125/1/4 134/1/4 118/1/4
f  109/1/1 136/1/1 126/1/1
f  133/1/52 110/1/52 126/1/52
f  137/1/4 109/1/4 127/1/4
f  120/1/5 128/1/5 138/1/5
f  128/1/54 113/1/54 130/1/54
f  120/1/5 139/1/5 129/1/5
f  129/1/55 130/1/55 121/1/55
f  133/1/1 122/1/1 131/1/1
f  131/1/56 115/1/56 133/1/56
f  116/1/5 132/1/57 137/1/5
f  136/1/3 132/1/3 122/1/3
f  135/1/4 104/1/4 133/1/4
f  133/1/5 110/1/5 131/1/5
f  124/1/56 135/1/56 115/1/56
f  104/1/4 118/1/4 123/1/4
f  123/1/4 118/1/4 134/1/4
f  118/1/4 104/1/4 135/1/4
f  136/1/1 122/1/1 126/1/1
f  140/1/1 136/1/1 109/1/1
f  126/1/1 122/1/1 133/1/1
f  141/1/4 109/1/4 137/1/4
f  130/1/5 138/1/5 128/1/5
f  142/1/5 120/1/5 138/1/5
f  139/1/5 143/1/5 129/1/5
f  139/1/5 120/1/5 142/1/5
f  129/1/5 143/1/5 130/1/5
f  133/1/56 115/1/56 135/1/56
f  141/1/57 137/1/5 132/1/57
f  136/1/58 140/1/58 132/1/57
f  140/1/4 109/1/4 141/1/4
f  138/1/5 130/1/5 143/1/5
f  142/1/59 138/1/59 144/1/59
f  143/1/60 139/1/60 145/1/60
f  142/1/61 144/1/61 139/1/61
f  141/1/57 132/1/57 140/1/58
f  138/1/62 143/1/62 146/1/62
f  146/1/59 144/1/59 138/1/59
f  147/1/60 145/1/60 139/1/60
f  145/1/62 146/1/62 143/1/62
f  147/1/61 139/1/61 144/1/61
f  146/1/5 145/1/5 144/1/5
f  147/1/5 144/1/5 145/1/5

# Mesh 'mesh1_mesh1-geometry' with 8 faces
g mesh1_mesh1-geometry
usemtl material_3_1_8
f  127/2/63 112/3/64 95/4/64
f  112/3/64 127/2/63 102/5/63
f  127/2/63 116/6/7 102/5/63
f  116/6/7 127/2/63 137/7/7
f  137/7/7 132/8/65 116/6/7
f  132/8/65 137/7/7 141/9/65
f  132/8/65 140/1/66 136/10/66
f  140/1/66 132/8/65 141/9/65

# Mesh 'mesh1_mesh1-geometry' with 2 faces
g mesh1_mesh1-geometry
usemtl material_2_24
f  144//7 145//7 146//7
f  145//7 144//7 147//7

# Mesh 'mesh2_mesh2-geometry' with 6 faces
g mesh2_mesh2-geometry
usemtl material_4_0
l  148 149
l  149 150
l  149 151
l  149 152
l  149 153
l  149 154

# Mesh 'mesh3_mesh3-geometry' with 3 faces
g mesh3_mesh3-geometry
usemtl material_4_0
l  155 156
l  23 155
l  155 157

# Mesh 'mesh4_mesh4-geometry' with 3 faces
g mesh4_mesh4-geometry
usemtl material_4_0
l  17 158
l  158 159
l  158 160

# Mesh 'mesh5_mesh5-geometry' with 1 faces
g mesh5_mesh5-geometry
usemtl material_4_0
l  31 161

# Mesh 'mesh6_mesh6-geometry' with 1 faces
g mesh6_mesh6-geometry
usemtl material_4_0
l  7 162

